<?xml version="1.0" standalone="no"?>
  <svg version="1.1"
      baseProfile="full"
     width="889px"
      height="538px"
     
      xmlns="http://www.w3.org/2000/svg"
      >
      <g xmlns="http://www.w3.org/2000/svg" xmlns:xlink="http://www.w3.org/1999/xlink">
      <g transform="rotate(0 438.4990913391114 262.78465728759767)"><svg id="1643675196692" opacity="1" fill="rgb(10, 20, 30)" viewBox="2.1600000858306885 -43.99244689941406 108.78999328613281 44.352447509765625" width="280.67818267822275" preserveAspectRatio="none" height="114.42931457519535" x="298.16" y="205.57"><path id="textPath" d="M61.06-28.15C61.06-28.44 60.98-28.80 60.84-29.09C60.41-29.88 59.54-30.46 58.10-30.46C56.95-30.46 55.94-30.38 55.01-30.17L54.29-31.10C56.81-31.82 58.46-33.34 59.33-35.14C59.76-36.00 60.05-37.01 60.05-37.94C60.05-38.88 59.90-39.82 59.47-40.68C58.61-42.62 56.59-44.06 53.57-43.99C52.49-43.99 51.55-43.70 50.83-43.13C50.11-42.62 49.68-41.83 49.68-40.90L49.68-40.82L49.68-40.75C49.68-39.82 50.47-39.02 51.41-39.02C52.42-39.02 53.21-39.82 53.21-40.75C53.21-41.40 52.85-42.05 52.27-42.34C52.70-42.48 53.14-42.55 53.57-42.55C55.87-42.62 57.38-41.62 58.10-40.18C57.82-40.61 57.46-40.90 57.17-41.04C57.02-41.11 56.95-41.11 56.81-41.11C56.59-41.11 56.38-40.97 56.30-40.75C56.23-40.68 56.23-40.54 56.23-40.46C56.23-40.18 56.38-39.89 56.66-39.82C57.31-39.53 58.46-39.17 58.61-37.73C58.61-37.37 58.54-37.08 58.39-36.72C58.46-36.94 58.46-37.08 58.46-37.30C58.46-38.02 58.25-38.52 57.96-38.88C57.67-39.24 57.31-39.17 57.02-38.95C56.81-38.74 56.74-38.30 57.02-37.94C57.38-37.51 58.03-37.01 58.03-36.22C58.03-36.00 57.96-35.71 57.82-35.42C57.10-33.98 55.51-32.83 53.35-32.40C51.41-35.14 49.39-37.94 46.87-37.94C46.22-37.94 45.65-37.66 45.29-37.22C45.00-36.86 44.78-36.36 44.78-35.71C44.86-34.56 45.50-33.12 46.94-32.11C48.02-31.32 49.46-30.74 51.34-30.74C51.84-30.74 52.27-30.82 52.70-30.82C52.99-30.46 53.28-30.10 53.50-29.74C51.41-29.02 50.11-27.72 49.32-26.28C48.96-25.49 48.74-24.55 48.67-23.69C48.67-22.82 48.82-21.96 49.10-21.24C49.18-20.95 49.32-20.74 49.46-20.52C48.60-19.58 48.10-18.29 48.10-16.63C48.10-14.11 49.54-12.38 51.12-10.58C52.70-8.71 54.36-6.70 54.29-3.89C54.22-2.38 53.64-1.58 52.99-1.22C52.70-1.15 52.49-1.08 52.20-1.08C51.98-1.08 51.70-1.15 51.48-1.30C50.98-1.51 50.62-1.94 50.54-2.52C50.76-2.45 50.98-2.38 51.26-2.38C52.06-2.38 52.63-2.95 52.63-3.74C52.63-4.54 52.06-5.11 51.26-5.11C50.62-5.11 50.11-4.82 49.75-4.46C49.32-4.03 49.18-3.46 49.10-2.81C49.10-1.44 49.82-0.43 50.90 0C51.26 0.22 51.77 0.29 52.20 0.36C52.63 0.36 53.14 0.22 53.57 0.07C54.72-0.50 55.58-1.73 55.66-3.82C55.80-7.27 53.93-9.43 52.20-11.45C50.83-13.10 49.54-14.69 49.54-16.63C49.54-17.71 49.82-18.65 50.33-19.30C51.19-18.50 52.27-18.07 53.50-18.07C54.58-18.07 55.30-18.58 55.58-19.30C55.73-19.58 55.80-19.87 55.80-20.23C55.73-20.52 55.73-20.81 55.58-21.10C55.22-21.82 54.50-22.39 53.35-22.39C52.49-22.39 51.48-22.10 50.54-21.46C50.47-21.60 50.47-21.67 50.40-21.74C50.18-22.32 50.11-22.97 50.11-23.69C50.11-24.34 50.33-24.98 50.62-25.63C51.26-26.86 52.49-27.94 54.50-28.51C55.80-27.00 57.10-25.92 58.68-25.92C59.76-25.92 60.55-26.42 60.84-27.14C60.98-27.50 61.13-27.79 61.06-28.15ZM11.81-4.68C10.80-4.68 10.01-3.89 10.01-2.88C10.01-2.23 10.37-1.66 10.94-1.37C10.58-1.22 10.08-1.15 9.65-1.08C7.49-1.08 5.98-1.94 5.26-3.31C5.47-2.95 5.76-2.74 6.05-2.59L6.34-2.52C6.62-2.52 6.77-2.74 6.91-2.95C6.98-3.02 6.98-3.10 6.98-3.17C6.98-3.46 6.84-3.74 6.55-3.82C5.83-4.10 4.54-4.54 4.68-6.41C4.68-6.55 4.75-6.77 4.82-6.98C4.75-6.77 4.75-6.55 4.75-6.34C4.75-5.69 4.97-5.11 5.26-4.82C5.54-4.46 5.98-4.54 6.19-4.75C6.41-4.97 6.55-5.40 6.26-5.69C5.83-6.12 5.18-6.62 5.18-7.49C5.18-7.70 5.26-7.99 5.33-8.21C6.12-9.65 7.63-10.80 9.86-11.30C11.81-8.50 13.82-5.76 16.34-5.76C17.06-5.76 17.57-5.98 17.93-6.41C18.22-6.84 18.43-7.34 18.43-7.92C18.43-9.07 17.71-10.58 16.27-11.59C15.26-12.38 13.75-12.89 11.88-12.89C11.38-12.89 10.94-12.89 10.51-12.82L9.72-13.90C11.81-14.69 13.18-15.98 13.90-17.35C14.33-18.22 14.54-19.08 14.54-19.94L14.54-20.38C14.54-21.10 14.40-21.82 14.11-22.46C14.04-22.68 13.90-22.90 13.82-23.18C14.62-24.12 15.19-25.42 15.19-27.07C15.19-29.52 13.68-31.25 12.10-33.12C10.51-34.99 8.86-36.94 9.00-39.74C9.00-41.26 9.58-42.12 10.30-42.41C10.51-42.48 10.73-42.55 11.02-42.55C11.23-42.55 11.52-42.48 11.74-42.41C12.24-42.12 12.60-41.76 12.67-41.11C12.46-41.26 12.24-41.33 11.95-41.33C11.23-41.33 10.58-40.68 10.58-39.96C10.58-39.17 11.23-38.52 11.95-38.52C12.60-38.52 13.10-38.81 13.54-39.24C13.90-39.67 14.11-40.25 14.11-40.82C14.18-42.19 13.39-43.20 12.38-43.70C11.95-43.85 11.52-43.99 11.02-43.99C10.58-43.99 10.08-43.92 9.65-43.70C8.57-43.20 7.63-41.98 7.56-39.82C7.42-36.43 9.29-34.27 11.02-32.18C12.38-30.53 13.75-29.02 13.75-27.07C13.75-25.92 13.39-24.98 12.89-24.34C12.10-25.13 11.02-25.63 9.72-25.63C8.64-25.63 7.99-25.06 7.63-24.34C7.56-24.05 7.49-23.76 7.49-23.47C7.49-23.18 7.56-22.82 7.63-22.54C7.99-21.82 8.71-21.24 9.86-21.24C10.73-21.24 11.81-21.60 12.67-22.18C12.74-22.10 12.74-22.03 12.82-21.89C13.03-21.31 13.18-20.66 13.10-20.02C13.10-19.37 12.96-18.65 12.60-18.00C11.95-16.78 10.73-15.70 8.78-15.12C7.49-16.63 6.12-17.78 4.54-17.78C3.46-17.78 2.74-17.21 2.38-16.49C2.23-16.20 2.16-15.84 2.16-15.55C2.16-15.19 2.23-14.83 2.38-14.54C2.81-13.82 3.67-13.18 5.11-13.18C6.26-13.18 7.27-13.32 8.21-13.54C8.42-13.18 8.71-12.89 8.93-12.53C6.41-11.88 4.75-10.30 3.89-8.50C3.46-7.63 3.24-6.70 3.17-5.76C3.17-4.82 3.31-3.89 3.74-3.02C4.61-1.08 6.62 0.36 9.65 0.36C10.73 0.29 11.74 0 12.46-0.50C13.10-1.01 13.61-1.80 13.61-2.81C13.61-2.95 13.61-3.02 13.54-3.10C13.39-4.03 12.67-4.68 11.81-4.68ZM43.20-3.60L20.74-3.60L46.37-39.60L46.44-39.60L46.44-43.20L17.57-43.20L17.57-32.54L21.17-32.54L21.17-39.60L41.98-39.60L16.34-3.67L16.42-3.60L16.34-3.60L16.34 0L46.80 0L46.80-10.66L43.20-10.66ZM20.45-22.61C19.73-22.82 19.01-22.46 18.79-21.82L18.79-21.74C18.72-21.67 18.65-21.53 18.65-21.46L18.65-21.10C18.65-20.45 18.94-19.87 19.44-19.51C19.73-19.30 20.02-19.15 20.30-19.08C20.66-19.01 21.02-19.01 21.31-19.08C22.10-19.22 22.82-19.80 23.18-20.88C23.40-21.60 23.40-22.75 23.40-24.12C23.40-25.20 23.40-26.42 23.54-27.43L24.05-27.22C24.34-27.07 24.62-27.07 24.91-27.07C25.13-27.07 25.34-27.07 25.56-27.14C26.06-27.36 26.42-27.72 26.64-28.30L26.71-28.30C26.78-28.51 26.78-28.73 26.78-29.02C26.78-29.30 26.78-29.59 26.64-29.88C26.42-30.38 25.99-30.89 25.34-31.10C24.98-31.25 24.70-31.25 24.41-31.25C23.90-31.25 23.47-31.03 23.11-30.67C23.11-31.10 23.18-31.54 23.33-32.04C23.47-32.47 23.69-32.83 23.90-33.19C24.26-33.55 24.70-33.70 25.13-33.70C25.56-33.70 25.99-33.48 26.35-33.41C26.71-33.26 27.07-33.55 27.14-33.84C27.29-34.13 27.14-34.49 26.71-34.63C26.21-34.78 25.34-34.56 24.55-33.91C24.84-34.20 25.20-34.49 25.56-34.63C25.85-34.78 26.06-34.78 26.28-34.78C27.14-34.78 27.65-34.20 28.08-33.91C28.37-33.62 28.80-33.70 29.02-33.91C29.23-34.13 29.23-34.49 28.87-34.85C28.80-34.92 28.66-35.06 28.51-35.06C28.80-35.06 29.09-34.99 29.30-34.92C29.66-34.85 29.95-34.70 30.24-34.56C29.59-33.84 29.16-33.05 28.87-32.26L28.80-32.11C28.66-31.68 28.58-31.25 28.58-30.82C28.58-30.02 28.87-29.38 29.23-28.94C29.52-28.66 29.81-28.44 30.17-28.30C30.46-28.22 30.89-28.15 31.25-28.22C32.04-28.37 32.83-29.02 33.19-30.24C33.41-30.82 33.48-31.32 33.48-31.82C33.48-32.90 33.05-33.84 32.40-34.63C32.69-34.78 32.98-34.99 33.34-35.06C33.41-34.49 33.62-34.06 33.91-33.62C34.20-33.34 34.49-33.12 34.78-32.90C35.14-32.76 35.50-32.69 35.78-32.69C36.50-32.76 37.08-33.12 37.30-33.91L37.37-33.91C37.44-34.20 37.44-34.42 37.44-34.70C37.44-34.99 37.37-35.28 37.22-35.57C36.94-36.00 36.50-36.36 36.00-36.58L35.86-36.58C35.50-36.72 35.14-36.79 34.78-36.79L34.78-37.01C35.14-37.08 35.50-37.30 35.57-37.66C35.71-38.16 35.50-38.74 34.99-38.88C34.63-39.02 34.34-38.95 34.06-38.81C33.91-38.66 33.77-38.52 33.70-38.38C33.48-37.73 33.34-37.15 33.26-36.58C32.62-36.43 32.04-36.14 31.46-35.71L31.32-35.57C30.82-35.86 30.31-36.14 29.74-36.29C29.02-36.50 28.22-36.65 27.43-36.58C25.20-36.50 22.97-35.28 21.96-32.47C21.82-31.90 21.67-31.32 21.67-30.82C21.67-30.31 21.82-29.81 21.96-29.38C22.03-29.09 22.10-28.87 22.25-28.66C21.96-27.36 21.96-25.63 21.96-24.12C21.96-22.90 21.96-21.82 21.82-21.31C21.67-20.81 21.31-20.59 21.02-20.52L21.24-20.95C21.46-21.60 21.10-22.39 20.45-22.61ZM10.44-37.44C10.44-37.44 10.37-37.15 10.37-36.72C10.37-36.22 10.44-35.57 11.02-34.85C11.95-33.62 13.97-34.42 14.76-32.54C14.76-32.54 14.98-33.12 14.98-33.84C14.98-34.34 14.83-35.06 14.40-35.64C13.39-36.94 11.23-36.29 10.44-37.44ZM51.34-32.18C49.82-32.18 48.60-32.62 47.81-33.26C46.73-33.98 46.22-34.99 46.22-35.71C46.22-36.00 46.30-36.22 46.44-36.29C46.51-36.43 46.66-36.50 46.87-36.50C48.53-36.50 50.11-34.42 51.77-32.18ZM35.42-35.21L35.50-35.21C35.71-35.14 35.86-34.99 36.00-34.85C36.00-34.78 36.07-34.63 36.00-34.42C35.93-34.20 35.78-34.13 35.71-34.13C35.64-34.13 35.57-34.13 35.42-34.20C35.28-34.27 35.21-34.34 35.06-34.49C34.92-34.70 34.78-34.99 34.70-35.35C34.92-35.35 35.21-35.28 35.42-35.21ZM7.85-29.95C8.64-28.44 10.51-28.22 10.51-28.22C10.08-28.73 9.94-29.23 9.94-29.74C9.94-30.46 10.22-31.10 10.22-31.82C10.22-32.11 10.15-32.40 10.01-32.69C9.29-34.13 7.99-34.27 7.99-34.27C8.14-34.06 8.21-33.84 8.21-33.55C8.21-32.76 7.63-31.75 7.63-30.82C7.63-30.53 7.70-30.24 7.85-29.95ZM32.04-31.82C32.04-31.46 31.97-31.10 31.82-30.67C31.61-30.02 31.25-29.74 30.96-29.66L30.60-29.66C30.53-29.74 30.46-29.81 30.31-29.88C30.17-30.10 30.02-30.38 30.02-30.67C30.02-30.96 30.10-31.32 30.24-31.68L30.24-31.82C30.46-32.47 30.82-33.12 31.32-33.62C31.75-33.12 32.04-32.54 32.04-31.82ZM49.82-28.44C50.33-28.44 50.76-28.80 50.83-29.30C50.83-29.81 50.47-30.24 49.97-30.31C49.46-30.31 49.03-29.88 48.96-29.38C48.96-28.94 49.32-28.51 49.82-28.44ZM24.91-29.74C25.13-29.66 25.27-29.52 25.27-29.38C25.34-29.16 25.34-28.94 25.34-28.80L25.27-28.73C25.27-28.66 25.20-28.58 25.06-28.51C24.91-28.44 24.70-28.51 24.48-28.58C24.26-28.66 24.05-28.80 23.83-29.02C24.05-29.59 24.34-29.95 24.91-29.74ZM28.80-28.66C28.80-29.16 28.37-29.52 27.86-29.45C27.43-29.38 27.07-28.94 27.07-28.51C27.14-28.01 27.58-27.72 28.01-27.72C28.51-27.79 28.87-28.22 28.80-28.66ZM59.62-27.79C59.47-27.50 59.11-27.36 58.68-27.36C57.82-27.36 56.95-27.94 56.09-28.87C56.66-28.94 57.38-29.02 58.10-29.02C58.90-29.02 59.40-28.73 59.54-28.44L59.69-28.08C59.69-28.01 59.62-27.94 59.62-27.79ZM47.52-27.65C47.45-27.14 47.88-26.71 48.38-26.64C48.89-26.64 49.25-27.07 49.32-27.58C49.32-28.01 48.96-28.44 48.46-28.51C47.95-28.51 47.52-28.15 47.52-27.65ZM25.92-26.57C25.92-26.14 26.35-25.78 26.86-25.85C27.29-25.85 27.65-26.28 27.65-26.78C27.58-27.22 27.14-27.58 26.71-27.58C26.21-27.50 25.85-27.07 25.92-26.57ZM24.62-26.78C24.19-26.78 23.83-26.35 23.90-25.85C23.90-25.42 24.34-25.06 24.84-25.06C25.27-25.13 25.63-25.56 25.63-26.06C25.56-26.50 25.13-26.86 24.62-26.78ZM48.46-25.27C48.46-25.78 48.10-26.21 47.59-26.21C47.09-26.21 46.66-25.85 46.66-25.34C46.66-24.84 47.02-24.41 47.52-24.41C48.02-24.41 48.46-24.77 48.46-25.27ZM43.78-21.46C44.50-21.17 45.29-21.60 45.50-22.32C45.58-22.54 45.65-22.75 45.58-22.97C45.58-23.69 45.29-24.26 44.78-24.70C44.50-24.84 44.21-24.98 43.85-25.06C43.56-25.20 43.20-25.20 42.84-25.13C42.05-24.91 41.26-24.34 40.90-23.18C40.68-22.46 40.68-21.24 40.68-19.80C40.68-18.65 40.68-17.35 40.54-16.27L39.96-16.49L39.96-16.56C39.67-16.63 39.38-16.70 39.17-16.70C38.88-16.70 38.66-16.63 38.38-16.56C37.87-16.42 37.44-15.98 37.22-15.41L37.22-15.34C37.15-15.12 37.08-14.83 37.08-14.54C37.08-14.33 37.15-14.04 37.22-13.75C37.44-13.18 37.87-12.74 38.59-12.46C38.95-12.31 39.24-12.31 39.53-12.31C40.10-12.31 40.61-12.53 40.97-12.96C40.97-12.53 40.90-12.02 40.75-11.45L40.32-10.51C39.82-9.86 39.24-9.72 38.81-9.72C38.30-9.72 37.87-9.94 37.51-10.01C37.08-10.15 36.72-9.86 36.65-9.58C36.58-9.22 36.65-8.86 37.15-8.71C37.87-8.57 38.95-8.86 39.89-9.94C39.53-9.43 39.10-9.07 38.59-8.78C38.23-8.57 37.87-8.50 37.58-8.50C36.72-8.50 36.14-9.14 35.71-9.50C35.35-9.79 34.99-9.72 34.70-9.43C34.49-9.22 34.42-8.86 34.78-8.50C34.99-8.35 35.21-8.21 35.57-8.14C35.21-8.14 34.78-8.21 34.34-8.35L33.34-8.78C33.98-9.50 34.49-10.37 34.78-11.23C34.85-11.30 34.85-11.30 34.85-11.38C34.99-11.88 35.06-12.31 35.06-12.74C35.06-13.54 34.78-14.26 34.42-14.69C34.13-14.98 33.84-15.19 33.48-15.34C33.12-15.48 32.76-15.48 32.40-15.41C31.54-15.26 30.74-14.62 30.31-13.39C30.10-12.82 30.02-12.24 30.02-11.66C30.02-10.51 30.46-9.50 31.18-8.71C30.82-8.50 30.46-8.28 30.10-8.14C30.02-8.78 29.74-9.29 29.45-9.72C29.23-10.08 28.94-10.30 28.58-10.44C28.22-10.66 27.86-10.73 27.50-10.73C26.86-10.66 26.21-10.30 25.92-9.43C25.85-9.14 25.78-8.93 25.78-8.71C25.78-8.35 25.92-7.99 26.06-7.70C26.35-7.27 26.78-6.91 27.36-6.70L27.50-6.70C27.86-6.55 28.30-6.48 28.73-6.48L28.66-6.19C28.22-6.19 27.86-5.90 27.79-5.47C27.58-4.97 27.86-4.39 28.44-4.18C28.73-4.10 29.02-4.18 29.30-4.32C29.45-4.39 29.52-4.46 29.59-4.61L29.74-4.82L29.74-5.04C30.02-5.62 30.10-6.12 30.17-6.62C30.82-6.84 31.46-7.20 32.04-7.56L32.26-7.78C32.76-7.42 33.34-7.20 33.91-6.98C34.70-6.77 35.57-6.62 36.36-6.70C38.74-6.77 41.11-8.06 42.05-11.02C42.34-11.66 42.41-12.24 42.41-12.74C42.41-13.32 42.34-13.82 42.12-14.26C42.05-14.54 41.90-14.76 41.83-14.98C42.12-16.42 42.12-18.22 42.12-19.80C42.12-21.10 42.12-22.25 42.26-22.82C42.48-23.33 42.77-23.62 43.13-23.69L43.20-23.69C43.13-23.54 42.98-23.40 42.91-23.18C42.70-22.46 43.06-21.67 43.78-21.46ZM9.86-22.68C9.36-22.68 9.07-22.90 9.00-23.18C8.93-23.26 8.93-23.33 8.93-23.47L8.93-23.76C9.07-23.98 9.29-24.19 9.72-24.19C10.58-24.19 11.30-23.83 11.81-23.33C11.16-22.90 10.51-22.68 9.86-22.68ZM53.35-20.95C53.86-20.95 54.14-20.74 54.29-20.52C54.29-20.38 54.36-20.30 54.36-20.23C54.36-20.09 54.29-20.02 54.29-19.87C54.14-19.66 53.93-19.51 53.50-19.51C52.70-19.51 51.98-19.80 51.41-20.30C52.06-20.74 52.78-20.95 53.35-20.95ZM14.76-18.36C14.76-17.86 15.12-17.50 15.62-17.42C16.13-17.42 16.56-17.78 16.56-18.29C16.63-18.79 16.20-19.22 15.70-19.22C15.19-19.30 14.76-18.86 14.76-18.36ZM39.31-16.99C39.82-17.06 40.18-17.50 40.10-18.00C40.10-18.50 39.60-18.86 39.10-18.79C38.59-18.72 38.23-18.29 38.30-17.78C38.38-17.28 38.81-16.92 39.31-16.99ZM37.15-16.20C37.66-16.27 38.02-16.70 38.02-17.21C37.94-17.71 37.51-18.07 37.01-18.00C36.50-17.93 36.14-17.50 36.14-16.99C36.22-16.49 36.65-16.13 37.15-16.20ZM15.77-16.06C15.77-16.56 15.41-16.99 14.90-16.99C14.40-16.99 13.97-16.63 13.90-16.13C13.90-15.62 14.33-15.19 14.76-15.19C15.26-15.12 15.70-15.55 15.77-16.06ZM5.11-14.62C4.32-14.62 3.82-14.90 3.67-15.26C3.60-15.34 3.60-15.48 3.60-15.55C3.60-15.62 3.60-15.77 3.67-15.84C3.74-16.13 4.10-16.34 4.54-16.34C5.40-16.34 6.26-15.70 7.13-14.76C6.55-14.69 5.83-14.62 5.11-14.62ZM35.71-15.98C35.21-15.98 34.85-15.48 34.92-14.98C34.99-14.47 35.42-14.11 35.93-14.18C36.43-14.26 36.79-14.69 36.72-15.19C36.65-15.70 36.22-16.06 35.71-15.98ZM55.37-13.68C54.65-15.19 52.70-15.41 52.70-15.41C53.21-14.90 53.28-14.40 53.28-13.90C53.28-13.18 52.99-12.53 52.99-11.88C52.99-11.52 53.06-11.23 53.21-10.94C53.93-9.50 55.30-9.36 55.30-9.36C55.15-9.58 55.08-9.86 55.08-10.15C55.08-10.94 55.58-11.88 55.58-12.74C55.58-13.10 55.51-13.39 55.37-13.68ZM39.02-13.82C38.81-13.90 38.66-14.11 38.59-14.26C38.52-14.47 38.52-14.69 38.59-14.90C38.66-15.05 38.74-15.19 38.81-15.19C39.02-15.26 39.24-15.26 39.46-15.19C39.74-15.05 40.03-14.90 40.25-14.69C40.03-14.04 39.67-13.61 39.02-13.82ZM13.39-15.19C12.89-15.19 12.46-14.83 12.46-14.33C12.38-13.82 12.82-13.39 13.32-13.39C13.82-13.39 14.18-13.75 14.26-14.26C14.26-14.76 13.90-15.19 13.39-15.19ZM31.46-11.74C31.46-12.10 31.54-12.46 31.68-12.89C31.90-13.61 32.26-13.97 32.62-14.04C32.76-14.04 32.90-14.04 32.98-13.97C33.12-13.97 33.26-13.90 33.34-13.75C33.48-13.54 33.62-13.18 33.62-12.74C33.62-12.46 33.62-12.17 33.48-11.81L33.48-11.66C33.19-11.02 32.76-10.30 32.26-9.65C31.75-10.22 31.46-10.94 31.46-11.74ZM11.88-11.45C13.39-11.45 14.62-11.02 15.48-10.44C16.49-9.65 16.99-8.71 16.99-7.92C16.99-7.70 16.92-7.49 16.85-7.34C16.70-7.27 16.56-7.20 16.34-7.20C14.69-7.20 13.10-9.22 11.45-11.45ZM52.78-6.19C52.78-6.19 52.85-6.48 52.85-6.91C52.85-7.42 52.78-8.06 52.20-8.78C51.26-10.08 49.25-9.22 48.46-11.16C48.46-11.16 48.24-10.58 48.24-9.86C48.24-9.29 48.38-8.64 48.82-8.06C49.82-6.70 51.98-7.42 52.78-6.19ZM27.94-8.06L27.86-8.06C27.58-8.14 27.43-8.28 27.29-8.42C27.22-8.57 27.22-8.71 27.29-9.00C27.36-9.14 27.50-9.29 27.65-9.29C27.72-9.29 27.79-9.29 27.94-9.22C28.08-9.14 28.22-9.00 28.30-8.86C28.51-8.64 28.66-8.28 28.73-7.92C28.44-7.92 28.15-7.99 27.94-8.06ZM74.30 0.36C74.74 0.29 75.17 0.22 75.60 0C76.61-0.43 77.40-1.44 77.33-2.81C77.33-3.46 77.11-4.03 76.75-4.46C76.39-4.82 75.89-5.11 75.24-5.11C74.45-5.11 73.80-4.54 73.80-3.74C73.80-2.95 74.45-2.38 75.24-2.38C75.46-2.38 75.67-2.45 75.89-2.52C75.82-1.94 75.46-1.51 74.95-1.30C74.74-1.15 74.52-1.08 74.23-1.08C74.02-1.08 73.73-1.15 73.51-1.22C72.79-1.58 72.29-2.38 72.22-3.89C72.14-6.70 73.80-8.71 75.38-10.58C76.90-12.38 78.41-14.11 78.41-16.63C78.41-18.29 77.83-19.58 77.04-20.52C77.18-20.74 77.26-20.95 77.40-21.24C77.69-21.96 77.83-22.82 77.76-23.69C77.76-24.55 77.54-25.49 77.11-26.28C76.39-27.72 75.02-29.02 72.94-29.74L73.73-30.82C74.16-30.82 74.59-30.74 75.10-30.74C76.97-30.74 78.48-31.32 79.56-32.11C80.93-33.12 81.65-34.56 81.65-35.71C81.65-36.36 81.50-36.86 81.14-37.22C80.78-37.66 80.28-37.94 79.63-37.94C77.04-37.94 75.02-35.14 73.08-32.40C70.85-32.90 69.34-34.06 68.54-35.57C68.47-35.78 68.40-35.93 68.40-36.14C68.40-37.01 69.12-37.51 69.48-37.94C69.77-38.30 69.70-38.74 69.41-38.95C69.19-39.17 68.83-39.24 68.47-38.88C68.18-38.52 67.97-37.94 67.97-37.30L67.97-36.94C67.97-37.15 67.90-37.37 67.90-37.51C67.90-39.17 69.12-39.53 69.77-39.82C70.06-39.89 70.20-40.18 70.20-40.39C70.20-40.54 70.20-40.61 70.13-40.75C70.06-40.97 69.91-41.11 69.62-41.11C69.48-41.11 69.41-41.11 69.26-41.04C68.90-40.90 68.54-40.54 68.26-40.03C68.98-41.54 70.49-42.62 72.86-42.55C73.37-42.55 73.80-42.48 74.16-42.34C73.66-41.98 73.30-41.40 73.30-40.75C73.30-39.82 74.09-39.02 75.02-39.02C76.03-39.02 76.82-39.82 76.82-40.75L76.82-40.90C76.82-41.83 76.39-42.62 75.67-43.13C74.95-43.70 73.94-43.99 72.86-43.99C69.84-44.06 67.90-42.62 66.96-40.68C66.60-39.82 66.38-38.88 66.46-37.94C66.46-37.01 66.67-36.00 67.10-35.14C67.97-33.34 69.70-31.82 72.14-31.10C71.93-30.82 71.71-30.46 71.42-30.17C70.56-30.38 69.55-30.46 68.40-30.46C66.96-30.46 66.02-29.88 65.66-29.09C65.45-28.80 65.38-28.44 65.38-28.15C65.38-27.79 65.45-27.50 65.59-27.14C65.95-26.42 66.67-25.92 67.75-25.92C69.34-25.92 70.70-27.00 72.00-28.51C73.94-27.94 75.24-26.86 75.82-25.63C76.18-24.98 76.32-24.34 76.39-23.69C76.39-22.97 76.25-22.32 76.03-21.74C76.03-21.67 75.96-21.60 75.89-21.46C75.02-22.10 74.02-22.39 73.15-22.39C72.00-22.39 71.21-21.82 70.92-21.10C70.78-20.81 70.70-20.52 70.70-20.23C70.70-19.87 70.78-19.58 70.85-19.30C71.21-18.58 71.93-18.07 72.94-18.07C74.23-18.07 75.31-18.50 76.10-19.30C76.61-18.65 76.97-17.71 76.97-16.63C76.97-14.69 75.67-13.10 74.23-11.45C72.50-9.43 70.63-7.27 70.78-3.82C70.85-1.73 71.78-0.50 72.94 0.07C73.37 0.22 73.80 0.36 74.30 0.36ZM78.19 0L110.59 0L110.59-9.22L106.99-9.22L106.99-3.60L86.04-3.60L86.04-19.80L98.93-19.80L98.93-16.99L102.53-16.99L102.53-26.21L98.93-26.21L98.93-23.40L86.04-23.40L86.04-39.60L106.99-39.60L106.99-33.98L110.59-33.98L110.59-43.20L78.19-43.20L78.19-39.60L82.44-39.60L82.44-3.60L78.19-3.60ZM92.16-26.28C92.88-26.35 93.53-26.57 94.03-26.93C94.54-27.36 94.82-27.94 94.82-28.66C94.75-29.30 94.54-29.95 93.96-30.38C93.53-30.67 92.88-30.89 92.02-30.96L91.80-30.96C91.22-30.96 90.65-30.46 90.65-29.81C90.65-29.16 91.22-28.66 91.80-28.66C92.30-28.66 92.66-28.94 92.88-29.38L93.10-29.23C93.24-29.09 93.38-28.87 93.38-28.66C93.38-28.37 93.24-28.15 93.10-28.01C92.88-27.86 92.52-27.72 92.16-27.72C91.44-27.72 90.65-28.01 90.00-28.66C89.42-29.23 88.92-30.17 88.92-31.54L88.92-31.97C88.99-31.46 89.21-31.03 89.42-30.82C89.78-30.46 90.14-30.46 90.36-30.67C90.58-30.96 90.72-31.39 90.43-31.68C90.00-32.11 89.42-32.62 89.42-33.48C89.42-33.77 89.50-34.06 89.57-34.34C89.71-34.56 89.86-34.85 90.07-35.06C89.64-34.34 89.50-33.62 89.64-33.12C89.78-32.62 90.14-32.54 90.43-32.62C90.79-32.76 91.08-33.05 90.94-33.48C90.86-33.84 90.65-34.27 90.65-34.78C90.65-35.21 90.79-35.64 91.15-36.00C91.87-36.50 92.81-36.79 93.89-36.79C94.61-36.79 95.18-36.65 95.62-36.43C95.04-36.22 94.61-35.78 94.39-35.35C94.25-35.06 94.18-34.70 94.18-34.42C94.18-34.13 94.25-33.77 94.39-33.48C94.68-32.76 95.47-32.18 96.48-32.18C97.13-32.18 97.63-32.47 97.99-32.90C98.28-33.34 98.42-33.84 98.42-34.42L98.42-34.78L99.79-34.27C100.73-33.84 101.66-33.41 102.38-33.41C103.61-33.41 104.40-33.91 104.83-34.63C104.98-34.92 105.12-35.28 105.12-35.64L105.12-35.93C105.12-36.14 105.12-36.36 105.05-36.65C104.83-37.30 104.26-37.87 103.32-38.02L103.18-38.02C102.53-38.02 102.02-37.51 102.02-36.94C102.02-36.29 102.53-35.78 103.18-35.78C103.39-35.78 103.54-35.86 103.68-35.93L103.68-35.78C103.68-35.64 103.68-35.50 103.61-35.35C103.39-35.06 103.03-34.85 102.46-34.85C101.95-34.85 101.16-35.21 100.37-35.57C99.50-35.93 98.64-36.29 97.70-36.50C97.56-36.72 97.27-37.01 97.06-37.22C96.26-37.80 95.26-38.23 93.89-38.23C91.73-38.23 90.14-37.37 89.06-36.07C87.98-34.85 87.48-33.19 87.48-31.61L87.48-31.54C87.48-29.74 88.13-28.44 89.06-27.58C89.93-26.71 91.08-26.28 92.16-26.28ZM74.74-32.18C76.32-34.42 77.98-36.50 79.63-36.50C79.85-36.50 79.99-36.43 80.06-36.29C80.14-36.22 80.21-36.00 80.21-35.71C80.21-34.99 79.70-33.98 78.70-33.26C77.83-32.62 76.68-32.18 75.10-32.18ZM96.48-33.62C96.05-33.62 95.83-33.84 95.69-34.13C95.62-34.20 95.62-34.34 95.62-34.42C95.62-34.49 95.62-34.63 95.69-34.70C95.83-34.99 96.12-35.14 96.77-35.14L96.84-35.14C96.98-34.92 96.98-34.63 96.98-34.42C96.98-34.13 96.98-33.91 96.84-33.77C96.77-33.70 96.62-33.62 96.48-33.62ZM99.00-31.39C99.36-31.39 99.72-31.61 99.79-31.90C99.86-32.04 99.86-32.18 99.86-32.33C99.86-32.62 99.65-32.98 99.36-33.12C99.22-33.19 99.07-33.19 99.00-33.19C98.64-33.19 98.28-32.98 98.14-32.62C98.06-32.47 98.06-32.40 98.06-32.26C98.06-31.97 98.28-31.61 98.64-31.46C98.78-31.39 98.86-31.39 99.00-31.39ZM94.68-30.60C94.97-30.60 95.33-30.82 95.47-31.10C95.54-31.25 95.54-31.39 95.54-31.54C95.54-31.82 95.33-32.18 95.04-32.33C94.90-32.40 94.75-32.40 94.68-32.40C94.32-32.40 93.96-32.18 93.82-31.82C93.74-31.68 93.74-31.61 93.74-31.46C93.74-31.10 93.96-30.74 94.32-30.67C94.46-30.60 94.54-30.60 94.68-30.60ZM96.91-30.24C97.27-30.24 97.63-30.46 97.78-30.74L97.85-31.03C97.85-31.46 97.63-31.82 97.27-31.97C97.13-32.04 97.06-32.04 96.91-32.04C96.55-32.04 96.19-31.82 96.05-31.46L95.98-31.18C95.98-30.82 96.19-30.46 96.55-30.31C96.70-30.24 96.77-30.24 96.91-30.24ZM107.64-11.45C108.94-11.45 109.80-12.17 110.09-12.96C110.23-13.25 110.30-13.61 110.30-13.90C110.30-14.18 110.30-14.54 110.16-14.76C109.94-15.48 109.37-16.06 108.50-16.06L108.36-16.06C107.78-16.06 107.28-15.55 107.28-14.98C107.28-14.40 107.78-13.90 108.36-13.90C108.58-13.90 108.72-13.97 108.86-14.04L108.86-13.97C108.86-13.82 108.86-13.68 108.79-13.54C108.65-13.18 108.29-12.89 107.64-12.89C107.28-12.89 106.99-13.03 106.70-13.39C106.49-13.68 106.27-14.18 106.27-14.90C106.20-17.06 107.42-18.58 108.65-19.94C109.80-21.38 110.95-22.68 110.95-24.70C110.95-25.99 110.59-27.00 110.09-27.72C110.16-28.15 110.23-28.51 110.23-28.94C110.23-29.59 110.09-30.31 109.73-30.96C109.58-31.32 109.15-31.46 108.79-31.32C108.43-31.10 108.29-30.67 108.43-30.31C108.65-29.88 108.79-29.38 108.79-28.94C108.22-29.23 107.57-29.45 106.99-29.45C105.91-29.45 105.19-28.80 104.90-28.08C104.83-27.79 104.76-27.50 104.76-27.22C104.76-26.93 104.76-26.64 104.90-26.35C105.19-25.63 105.84-25.06 106.85-25.06C107.35-25.06 107.78-25.20 108.22-25.42C108.65-25.56 109.01-25.85 109.30-26.21C109.44-25.78 109.51-25.27 109.51-24.70C109.51-23.98 109.30-23.33 108.86-22.68C108.94-22.97 108.94-23.33 108.86-23.54C108.72-24.05 108.36-24.12 108.07-24.05C107.71-23.90 107.50-23.54 107.57-23.18C107.71-22.82 107.86-22.39 107.86-21.89C107.86-21.67 107.78-21.38 107.71-21.10C107.64-21.10 107.64-21.02 107.57-20.95C107.64-21.38 107.64-21.74 107.57-22.03C107.42-22.46 107.06-22.61 106.78-22.46C106.49-22.39 106.20-22.03 106.34-21.67C106.42-21.31 106.63-20.88 106.63-20.38C106.63-20.09 106.56-19.80 106.42-19.51C105.55-18.29 104.76-16.85 104.83-14.90C104.83-13.82 105.12-13.03 105.55-12.53C106.13-11.81 106.92-11.45 107.64-11.45ZM105.70-29.45C106.06-29.45 106.42-29.81 106.42-30.17C106.34-30.60 106.06-30.89 105.62-30.89C105.19-30.89 104.90-30.53 104.90-30.17C104.98-29.74 105.26-29.45 105.70-29.45ZM76.61-28.44C77.11-28.51 77.47-28.94 77.47-29.38C77.47-29.88 77.04-30.31 76.54-30.31C76.03-30.24 75.67-29.81 75.67-29.30C75.67-28.80 76.10-28.44 76.61-28.44ZM103.90-28.37C104.33-28.37 104.62-28.73 104.62-29.09C104.62-29.52 104.26-29.81 103.90-29.81C103.46-29.81 103.18-29.45 103.18-29.09C103.18-28.66 103.54-28.37 103.90-28.37ZM67.75-27.36C67.32-27.36 67.03-27.50 66.89-27.79C66.82-27.94 66.82-28.01 66.82-28.08C66.82-28.22 66.82-28.30 66.89-28.44C67.10-28.73 67.54-29.02 68.40-29.02C69.12-29.02 69.77-28.94 70.42-28.87C69.48-27.94 68.62-27.36 67.75-27.36ZM78.12-26.64C78.62-26.71 78.98-27.14 78.98-27.65C78.98-28.15 78.55-28.51 78.05-28.51C77.54-28.44 77.11-28.01 77.18-27.58C77.18-27.07 77.62-26.64 78.12-26.64ZM106.85-26.50C106.49-26.50 106.34-26.71 106.20-26.93L106.20-27.22C106.20-27.36 106.20-27.43 106.27-27.58C106.34-27.79 106.56-28.01 106.99-28.01C107.42-28.01 107.93-27.79 108.36-27.43C108.22-27.07 107.93-26.86 107.57-26.71C107.35-26.57 107.14-26.50 106.85-26.50ZM103.61-26.35C103.97-26.42 104.33-26.71 104.33-27.14C104.26-27.50 103.97-27.86 103.54-27.86C103.10-27.79 102.82-27.50 102.82-27.07C102.89-26.64 103.18-26.35 103.61-26.35ZM78.98-24.41C79.49-24.41 79.85-24.84 79.85-25.34C79.78-25.85 79.34-26.21 78.84-26.21C78.34-26.21 77.98-25.78 77.98-25.27C78.05-24.77 78.48-24.41 78.98-24.41ZM78.19-19.01C78.55-20.45 80.86-20.52 81.36-22.10C81.50-22.39 81.50-22.68 81.50-22.97C81.50-24.19 80.71-25.20 80.71-25.20C80.57-23.11 78.41-23.26 77.83-21.67C77.69-21.31 77.69-21.02 77.69-20.74C77.69-19.73 78.19-19.01 78.19-19.01ZM72.94-19.51C72.58-19.51 72.29-19.66 72.22-19.87C72.14-20.02 72.14-20.09 72.14-20.23C72.14-20.30 72.14-20.38 72.22-20.52C72.29-20.74 72.65-20.95 73.15-20.95C73.73-20.95 74.45-20.74 75.10-20.30C74.52-19.80 73.80-19.51 72.94-19.51ZM107.06-15.98C107.57-16.78 109.08-16.27 109.80-17.14C110.16-17.57 110.23-18.14 110.23-18.58C110.23-19.01 110.16-19.30 110.16-19.30C109.51-18.00 108.14-18.58 107.50-17.71C106.78-16.85 107.06-15.98 107.06-15.98ZM93.89-4.90C95.26-4.90 96.26-5.33 97.06-5.90C97.27-6.12 97.56-6.41 97.70-6.62C98.64-6.84 99.50-7.20 100.37-7.56C101.16-7.92 101.95-8.28 102.46-8.28C103.03-8.28 103.39-8.06 103.61-7.78C103.68-7.63 103.68-7.49 103.68-7.34L103.68-7.20C103.54-7.27 103.39-7.34 103.18-7.34C102.53-7.34 102.02-6.84 102.02-6.19C102.02-5.62 102.46-5.18 103.10-5.11L103.32-5.11C104.26-5.26 104.83-5.83 105.05-6.48C105.12-6.84 105.19-7.20 105.12-7.49C105.12-7.85 104.98-8.21 104.83-8.50C104.40-9.22 103.61-9.72 102.38-9.72C101.66-9.72 100.73-9.29 99.79-8.86L98.42-8.35L98.42-8.71C98.42-9.29 98.28-9.79 97.99-10.22C97.63-10.66 97.13-10.94 96.48-10.94C95.47-10.94 94.68-10.37 94.39-9.65C94.25-9.36 94.18-9.00 94.18-8.71C94.18-8.42 94.25-8.06 94.39-7.78C94.61-7.34 95.04-6.91 95.62-6.70C95.18-6.48 94.61-6.34 93.89-6.34C92.81-6.34 91.87-6.62 91.15-7.13C90.79-7.49 90.65-7.92 90.65-8.35C90.65-8.86 90.86-9.29 90.94-9.65C91.08-10.08 90.79-10.37 90.43-10.51C90.14-10.58 89.78-10.51 89.64-10.01C89.50-9.50 89.64-8.78 90.07-8.06C89.86-8.28 89.71-8.57 89.57-8.78C89.50-9.07 89.42-9.36 89.42-9.65C89.42-10.51 90.00-11.02 90.43-11.45C90.72-11.74 90.58-12.17 90.36-12.46C90.14-12.67 89.78-12.67 89.42-12.31C89.21-12.10 88.99-11.66 88.92-11.16L88.92-11.59C88.92-12.96 89.42-13.90 90.00-14.47C90.65-15.12 91.44-15.41 92.16-15.41C92.52-15.41 92.88-15.26 93.10-15.12C93.24-14.98 93.38-14.76 93.38-14.47C93.38-14.26 93.24-14.04 93.10-13.90L92.88-13.75C92.66-14.18 92.30-14.47 91.80-14.47C91.22-14.47 90.65-13.97 90.65-13.32C90.65-12.67 91.22-12.17 91.80-12.17L92.02-12.17C92.88-12.17 93.53-12.46 93.96-12.74C94.54-13.18 94.75-13.82 94.82-14.47C94.82-15.19 94.54-15.77 94.03-16.20C93.53-16.56 92.88-16.78 92.16-16.85C91.08-16.85 89.93-16.42 89.06-15.55C88.13-14.69 87.48-13.39 87.48-11.59L87.48-11.52C87.48-9.94 87.98-8.28 89.06-7.06C90.14-5.76 91.73-4.90 93.89-4.90ZM71.21-9.36C71.21-9.36 72.58-9.50 73.30-10.94C73.44-11.23 73.51-11.52 73.51-11.81C73.51-12.53 73.15-13.25 73.15-13.97C73.15-14.40 73.30-14.90 73.73-15.41C73.73-15.41 71.86-15.19 71.14-13.68C70.99-13.39 70.92-13.03 70.92-12.74C70.92-11.81 71.42-10.94 71.42-10.08C71.42-9.86 71.35-9.58 71.21-9.36ZM96.91-11.09C97.06-11.09 97.13-11.09 97.27-11.16C97.63-11.30 97.85-11.66 97.85-12.10L97.78-12.38C97.63-12.67 97.27-12.89 96.91-12.89C96.77-12.89 96.70-12.89 96.55-12.82C96.19-12.67 95.98-12.31 95.98-11.95L96.05-11.66C96.19-11.30 96.55-11.09 96.91-11.09ZM94.68-10.73C94.75-10.73 94.90-10.73 95.04-10.80C95.33-10.94 95.54-11.30 95.54-11.59C95.54-11.74 95.54-11.88 95.47-12.02C95.33-12.31 94.97-12.53 94.68-12.53C94.54-12.53 94.46-12.53 94.32-12.46C93.96-12.38 93.74-12.02 93.74-11.66C93.74-11.52 93.74-11.45 93.82-11.30C93.96-10.94 94.32-10.73 94.68-10.73ZM99.00-9.94C99.07-9.94 99.22-9.94 99.36-10.01C99.65-10.15 99.86-10.51 99.86-10.80C99.86-10.94 99.86-11.09 99.79-11.23C99.72-11.52 99.36-11.74 99.00-11.74C98.86-11.74 98.78-11.74 98.64-11.66C98.28-11.52 98.06-11.16 98.06-10.87C98.06-10.73 98.06-10.66 98.14-10.51C98.28-10.15 98.64-9.94 99.00-9.94ZM73.73-6.19C74.45-7.42 76.61-6.70 77.62-8.06C78.12-8.64 78.19-9.36 78.19-10.01C78.19-10.66 78.05-11.16 78.05-11.16C77.26-9.22 75.24-10.08 74.23-8.78C73.73-8.14 73.58-7.49 73.58-6.98C73.58-6.55 73.73-6.19 73.73-6.19ZM96.77-7.99C96.12-7.99 95.83-8.14 95.69-8.42C95.62-8.50 95.62-8.64 95.62-8.71C95.62-8.78 95.62-8.93 95.69-9.00C95.83-9.29 96.05-9.50 96.48-9.50C96.62-9.50 96.77-9.43 96.84-9.36C96.98-9.22 96.98-9.00 96.98-8.71C96.98-8.50 96.98-8.21 96.84-7.99Z" style="pointer-events: bounding-box; cursor: move;"></path></svg></g><g transform="rotate(0 439.4999999999999 256.5049999999999)"><svg xmlns:dc="http://purl.org/dc/elements/1.1/" xmlns:cc="http://creativecommons.org/ns#" xmlns:rdf="http://www.w3.org/1999/02/22-rdf-syntax-ns#" xmlns:svg="http://www.w3.org/2000/svg" xmlns="http://www.w3.org/2000/svg" xmlns:sodipodi="http://sodipodi.sourceforge.net/DTD/sodipodi-0.dtd" xmlns:inkscape="http://www.inkscape.org/namespaces/inkscape" version="1.1" id="Layer_1" x="215.75" class="withFill injected-svg" y="31.86" viewBox="152.8291473388672 155.14999389648438 694.3419799804688 689.7000122070312" width="447.4999999999998" height="449.2899999999998" style="enable-background:new 0 0 1000 1000;" xml:space="preserve" data-src="/static/media/138.svg" xmlns:xlink="http://www.w3.org/1999/xlink" fill="rgb(10, 20, 30)" opacity="1" preserveAspectRatio="none"><style type="text/css" id="style3">
	.st0{fill:#231F20;}
	.st1{fill:#B9921D;}
</style><switch id="switch5" transform="translate(-44.970859,47.35)"><g id="g7"><g id="g9"><g id="g11"><path class="st0" d="m 831.1,632.3 c -1.4,2.3 -2.7,4.7 -3.8,7.2 -3,3.8 -7.1,6.8 -11.2,9.6 -7.5,5 -15.3,9.5 -23.4,13.5 -3.7,1.8 -7.6,3.7 -11.3,5.9 -4.2,2.2 -10.6,6.2 -10.8,10.8 -0.3,0.6 -0.6,1.3 -0.9,1.9 -3.4,1 -7,1.8 -10.8,2.2 -11.1,1.4 -22.6,1.1 -33.6,3.6 13.5,-9.4 25.8,-20.7 35.6,-33.8 0.3,0.3 1,0.1 0.9,-0.4 0,-0.2 0,-0.5 -0.1,-0.7 0.1,-0.2 0.2,-0.3 0.4,-0.5 13.1,-4.6 23.2,-16.1 26.7,-29.4 2.2,-8.3 1.5,-16.8 0.8,-25.3 -0.8,-10.2 -1.6,-20.5 -2.3,-30.7 -0.1,-1.2 -2,-1.2 -2.1,0 -1.9,16.3 -3.8,32.9 -11.3,47.7 -5.9,11.6 -15.1,22.9 -13.6,36.5 0,0.1 0,0.1 0,0.2 -10.1,13.4 -22.5,25 -36.3,34.6 3.7,-5.2 6.4,-11.5 8.6,-17.2 0.8,-1.9 1.4,-3.9 2.1,-5.8 0.3,0 0.5,-0.2 0.4,-0.5 0,-0.1 -0.1,-0.2 -0.1,-0.3 0.2,-0.5 0.3,-1.1 0.5,-1.6 0.3,0.1 0.6,0.1 0.9,-0.2 8.3,-6.9 11.3,-17.4 11.7,-27.8 0.4,-12.7 -1.4,-25.5 -2.4,-38.2 -0.1,-0.8 -1.4,-1 -1.7,-0.2 -4.1,13.9 -8.2,27.9 -12.3,41.8 -1.3,4.6 -2.9,9.4 -2.7,14.2 0.1,4.9 2.8,7.2 4.7,11 -0.8,2.7 -1.7,5.3 -2.7,7.9 -2.6,6.6 -6.4,12.4 -9.5,18.7 -5.5,3.7 -11.1,7.1 -17,10.2 -7.6,4 -16.1,7.4 -24.8,10.9 7.3,-6.8 12.8,-15.2 17,-24.2 0.5,0.1 1.1,0.2 1.8,0.1 6.4,-0.5 12.1,-7 14.9,-12.2 4.1,-7.4 4.8,-16 4.8,-24.3 -0.1,-10.5 -0.7,-20.9 -1.1,-31.4 0,-0.8 0,-1.5 -0.1,-2.3 -0.1,-1 -1.6,-0.8 -1.6,0.2 1,16.1 -11.5,28 -18.5,41.3 -3,5.7 -5.5,12.1 -5.2,18.7 0.1,3.2 0.6,7.2 3.4,9.1 0,0 0.1,0.1 0.1,0.1 -4.8,9.9 -10.7,19.1 -19.4,26.1 1.8,-6.6 2.8,-13.3 2.8,-20.1 7.7,-7.2 6.4,-19.8 5.1,-29.4 -1.9,-14.8 -6.5,-29.2 -13.2,-42.6 -0.5,-0.9 -2,-0.6 -1.8,0.5 3.1,15.2 -2.4,30 -3.6,45.1 -0.8,9.9 -0.1,25.2 11.3,28.9 0.1,0 0.3,0 0.4,0 -0.2,6.3 -1.2,12.5 -3,18.7 -19.4,8.1 -38.3,16.9 -45.5,37.6 -0.2,0.6 2,1.2 2.3,0.6 6.3,-15.9 19.3,-24.3 34.1,-31.2 8.1,-0.8 16.1,-1.2 24.2,0.1 3.5,0.6 6.7,1.4 9.9,2.5 0.4,2.6 2,5.4 3,7.3 2.3,4 5.5,7.5 9.2,10.2 7.6,5.6 17.2,7.9 26.5,5.8 11.1,-2.5 20.2,-10 28.4,-17.5 0.7,-0.6 0.5,-1.9 -0.6,-2 -3.5,-0.3 -6.6,0.7 -10.1,1.2 -4,0.5 -7.9,-0.1 -11.7,-1.4 -6.7,-2.2 -12.8,-6 -19.3,-8.6 -4.1,-1.6 -9.9,-3 -14.9,-2.4 -3.3,0 -8.6,0.8 -10.2,4 -0.1,0.2 -0.2,0.5 -0.2,0.7 -9.7,-2.8 -20.4,-3.4 -29.9,-1.8 0,0 0,0 0.1,0 15.2,-6.5 30.3,-12.5 44.5,-21 3.1,-1.9 6.2,-3.8 9.2,-5.8 13.6,-2.8 27.4,-2 41,-4.3 1.7,-0.3 3.5,-0.7 5.3,-1.1 -0.1,0.4 0.7,0.6 0.8,0.2 0,-0.1 0.1,-0.3 0.1,-0.4 0.6,-0.1 1.1,-0.3 1.7,-0.4 0.3,0.4 0.6,0.9 1.1,1.3 6.5,6.5 16.7,8.4 25.3,5.3 20,-7.2 23.1,-31 31,-48.8 1.7,-2.2 3,-4.6 3.8,-7.3 0.2,-0.9 -1.2,-1.9 -1.8,-0.9 z" id="path13-1675" inkscape:connector-curvature="0" style="fill: rgb(10, 20, 30);"></path></g><g id="g15"><path class="st0" d="m 676.8,196.3 c 2.6,0.8 5.2,1.5 7.9,1.9 4.4,2 8.3,5.2 12,8.5 6.7,6 12.9,12.6 18.7,19.4 2.6,3.1 5.4,6.5 8.5,9.5 3.2,3.6 8.6,8.8 13.1,7.9 0.7,0.2 1.4,0.3 2.1,0.4 1.8,3.1 3.4,6.4 4.8,10 4,10.5 6.5,21.7 11.6,31.7 -12.4,-10.8 -26.3,-20 -41.4,-26.4 0.2,-0.4 -0.1,-1 -0.7,-0.8 -0.2,0.1 -0.4,0.2 -0.6,0.2 -0.2,-0.1 -0.4,-0.2 -0.6,-0.2 -7.6,-11.6 -21.2,-18.6 -34.9,-18.9 -8.6,-0.2 -16.7,2.6 -24.7,5.3 -9.7,3.2 -19.5,6.5 -29.2,9.6 -1.2,0.4 -0.6,2.2 0.5,2.1 16.2,-2.1 32.9,-4.3 49,-0.5 12.6,2.9 25.9,9.2 38.7,4.4 0.1,0 0.1,0 0.2,0 15.5,6.5 29.7,15.8 42.4,26.9 -5.9,-2.3 -12.7,-3.4 -18.8,-4.2 -2,-0.3 -4.1,-0.5 -6.2,-0.6 -0.1,-0.2 -0.3,-0.4 -0.6,-0.3 -0.1,0.1 -0.2,0.2 -0.3,0.2 -0.6,0 -1.1,0 -1.7,-0.1 0,-0.3 -0.1,-0.6 -0.4,-0.8 -8.7,-6.4 -19.6,-6.8 -29.8,-4.6 -12.4,2.6 -24.4,7.5 -36.5,11.5 -0.8,0.3 -0.7,1.7 0.2,1.7 14.5,0.6 29,1.3 43.6,1.8 4.8,0.2 9.8,0.5 14.5,-0.8 4.8,-1.3 6.3,-4.4 9.5,-7.2 2.8,0.1 5.5,0.4 8.3,0.7 7,1 13.6,3.2 20.4,4.7 4.9,4.4 9.6,9.1 14,14 5.7,6.4 11,13.9 16.5,21.4 -8.4,-5.5 -17.8,-8.7 -27.6,-10.7 0,-0.5 -0.1,-1.1 -0.3,-1.7 -2,-6.1 -9.7,-10 -15.4,-11.6 -8.2,-2.2 -16.7,-0.8 -24.8,1.2 -10.1,2.6 -20.1,5.7 -30.2,8.6 -0.7,0.2 -1.5,0.4 -2.2,0.6 -1,0.3 -0.4,1.7 0.6,1.5 15.4,-4.8 29.9,4.4 44.5,8 6.3,1.6 13.1,2.4 19.4,0.5 3.1,-0.9 6.9,-2.3 8,-5.5 0,0 0,-0.1 0.1,-0.1 10.8,2.2 21.1,5.8 30.1,12.6 -6.8,-0.2 -13.6,0.5 -20.2,2.1 -8.8,-5.8 -20.7,-1.4 -29.8,2.1 -13.9,5.5 -26.8,13.3 -38.1,23.1 -0.8,0.7 -0.1,2.1 0.9,1.6 14.1,-6.6 29.7,-4.9 44.7,-7.4 9.8,-1.6 24.5,-6 25.3,-17.9 0,-0.2 0,-0.3 -0.1,-0.4 6.1,-1.3 12.4,-1.9 18.9,-1.6 12.6,16.9 25.7,33.1 47.5,35.1 0.6,0.1 0.7,-2.3 0.1,-2.3 -16.9,-2.2 -28.3,-12.8 -38.5,-25.6 -2.7,-7.7 -5,-15.3 -5.7,-23.6 -0.3,-3.5 -0.2,-6.9 0,-10.2 2.4,-1 4.8,-3.2 6.3,-4.7 3.3,-3.2 6,-7.1 7.7,-11.4 3.6,-8.7 3.5,-18.6 -0.7,-27.1 -5.1,-10.2 -14.6,-17.2 -23.8,-23.4 -0.8,-0.5 -2,0 -1.8,1 0.6,3.5 2.3,6.3 3.6,9.5 1.4,3.8 1.8,7.7 1.5,11.7 -0.5,7 -2.8,13.8 -3.7,20.8 -0.6,4.4 -0.6,10.4 1.2,15.1 0.8,3.2 2.8,8.2 6.4,9 0.3,0.1 0.5,0 0.8,0 -0.3,10.1 1.6,20.6 5.4,29.5 0,0 0,0 0,0 -10,-13.2 -19.5,-26.4 -31.1,-38.2 -2.5,-2.6 -5.2,-5.1 -7.9,-7.5 -5.9,-12.5 -8.6,-26.1 -14.1,-38.7 -0.7,-1.6 -1.5,-3.2 -2.3,-4.9 0.4,0 0.4,-0.8 0,-0.8 -0.1,0 -0.3,0 -0.4,0 -0.3,-0.5 -0.5,-1 -0.8,-1.5 0.3,-0.4 0.7,-0.8 1,-1.4 4.7,-7.9 4.1,-18.3 -0.9,-25.8 -11.8,-17.7 -35.7,-15 -54.8,-18.3 -2.5,-1.1 -5.2,-1.8 -8,-1.9 -1.4,0.3 -2.1,1.9 -0.9,2.2 z" id="path17-1676" inkscape:connector-curvature="0" style="fill: rgb(10, 20, 30);"></path></g><g id="g19"><path class="st0" d="m 867.4,360.4 c 0.7,1.9 1.5,3.7 2.4,5.5 0.9,3.5 0.7,7.2 0.4,10.8 -0.5,6.6 -1.5,13.1 -2.9,19.6 -0.6,3 -1.3,6.1 -1.7,9.2 -0.6,3.4 -1.2,8.9 1.3,11.2 0.2,0.5 0.5,0.9 0.7,1.4 -1,2.4 -2.2,4.8 -3.6,7.3 -4.3,7.1 -9.7,13.5 -13.2,21 0.7,-12.1 -0.2,-24.3 -3.3,-35.9 0.3,-0.1 0.5,-0.5 0.2,-0.7 -0.2,-0.1 -0.3,-0.2 -0.4,-0.3 0,-0.1 -0.1,-0.3 -0.1,-0.4 3.3,-9.6 1.3,-20.7 -4.8,-28.8 -3.8,-5 -9,-8.5 -14.2,-12 -6.3,-4.2 -12.5,-8.4 -18.7,-12.6 -0.7,-0.5 -1.6,0.6 -1,1.2 8.5,8.5 17.3,17.1 22.4,28.2 4,8.7 6.3,19.1 14.9,24.4 0,0 0.1,0.1 0.1,0.1 3.2,11.9 4.2,24.3 3.5,36.7 -1.3,-4.5 -3.7,-8.9 -6,-12.8 -0.8,-1.3 -1.6,-2.6 -2.4,-3.8 0.1,-0.1 0.1,-0.4 -0.1,-0.5 -0.1,0 -0.2,0 -0.3,-0.1 -0.2,-0.3 -0.5,-0.7 -0.7,-1 0.2,-0.1 0.3,-0.3 0.3,-0.6 -0.2,-7.9 -4.9,-14.4 -10.8,-19.4 -7.1,-6 -15.4,-10.8 -23.1,-16 -0.5,-0.3 -1.3,0.4 -0.9,0.9 6.2,8.7 12.3,17.4 18.5,26.1 2.1,2.9 4.1,5.9 7,8 2.9,2.2 5.4,1.7 8.5,2.2 1.2,1.7 2.3,3.4 3.3,5.2 2.6,4.5 4.3,9.3 6.5,14 -0.4,4.8 -1,9.6 -1.9,14.4 -1.1,6.2 -3.1,12.7 -5,19.2 -0.6,-7.3 -3,-14.3 -6.3,-20.8 0.3,-0.2 0.6,-0.5 0.9,-0.9 2.6,-3.9 1.5,-10.1 -0.2,-14.1 -2.4,-5.7 -7,-10.1 -11.9,-13.8 -6.1,-4.7 -12.4,-9.1 -18.6,-13.7 -0.4,-0.3 -0.9,-0.7 -1.4,-1 -0.6,-0.4 -1.2,0.6 -0.6,1 9.8,6.8 10.9,19.3 15.4,29.4 1.9,4.4 4.5,8.7 8.4,11.5 1.9,1.4 4.4,3 6.8,2.2 0,0 0.1,0 0.1,0 3.6,7.2 6.1,14.8 6.2,23.1 -3,-4 -6.4,-7.7 -10.3,-10.8 -0.6,-7.7 -8.5,-12.7 -14.6,-16.3 -9.4,-5.6 -19.8,-9.5 -30.6,-11.7 -0.7,-0.2 -1.3,0.9 -0.5,1.3 10.2,5.2 16.2,15 24.4,22.6 5.4,4.9 14.5,11.5 21.8,6.6 0.1,-0.1 0.1,-0.1 0.2,-0.2 3.5,3 6.7,6.4 9.5,10.2 -4.1,14.9 -7.7,29.8 1,43.3 0.2,0.4 1.6,-0.6 1.4,-1 -6.3,-10.8 -5.3,-22.2 -2.5,-33.9 3.2,-5.1 6.6,-9.8 11.1,-13.9 1.9,-1.7 3.9,-3.2 5.9,-4.6 1.7,0.9 4,1.3 5.6,1.6 3.4,0.5 6.8,0.2 10.1,-0.7 6.7,-1.8 12.4,-6.3 15.4,-12.6 3.6,-7.6 3.4,-16.2 2.8,-24.4 0,-0.7 -0.9,-1.2 -1.4,-0.6 -1.8,1.9 -2.6,4.1 -3.9,6.4 -1.5,2.5 -3.7,4.5 -6.1,6.1 -4.3,2.9 -9.3,4.6 -13.7,7.2 -2.8,1.6 -6.3,4.3 -8.2,7.5 -1.5,1.9 -3.5,5.3 -2.3,7.7 0.1,0.2 0.2,0.3 0.3,0.5 -6,4.3 -11.2,10.2 -14.7,16.4 0,0 0,0 0,0 3.1,-11.7 6.6,-23.2 8.1,-35.2 0.3,-2.6 0.6,-5.3 0.8,-7.9 4.6,-9.1 11.3,-16.7 16.1,-25.6 0.6,-1.1 1.2,-2.3 1.8,-3.5 0.2,0.2 0.7,-0.1 0.5,-0.4 -0.1,-0.1 -0.1,-0.2 -0.2,-0.3 0.2,-0.4 0.3,-0.8 0.5,-1.2 0.4,0 0.8,0 1.2,0 6.7,-0.8 12.5,-5.8 14.6,-12.2 4.9,-14.8 -7.4,-27.4 -14.1,-40 -0.5,-2 -1.3,-3.8 -2.5,-5.5 -0.3,-0.7 -1.5,-0.4 -1.2,0.5 z" id="path21-1677" inkscape:connector-curvature="0" style="fill: rgb(10, 20, 30);"></path></g><g id="g23"><path class="st0" d="m 466.2,154.3 c 1.8,-0.9 3.5,-1.9 5.2,-2.9 3.4,-1.2 7.1,-1.4 10.7,-1.5 6.6,-0.1 13.2,0.2 19.8,1 3,0.3 6.2,0.8 9.3,0.8 3.5,0.3 9,0.3 11,-2.4 0.4,-0.3 0.9,-0.5 1.3,-0.9 2.5,0.7 5,1.7 7.6,2.9 7.4,3.6 14.4,8.3 22.2,11.1 -12.1,0.5 -24.1,2.6 -35.4,6.8 -0.1,-0.3 -0.6,-0.5 -0.7,-0.1 -0.1,0.2 -0.2,0.3 -0.2,0.5 -0.1,0.1 -0.3,0.1 -0.4,0.2 -9.9,-2.4 -20.7,0.7 -28.2,7.5 -4.7,4.2 -7.6,9.8 -10.5,15.3 -3.6,6.6 -7.1,13.3 -10.8,19.9 -0.4,0.8 0.8,1.5 1.3,0.8 7.6,-9.3 15.4,-18.8 25.9,-25 8.2,-4.8 18.5,-8.1 22.9,-17.1 0,0 0.1,-0.1 0.1,-0.1 11.6,-4.3 23.8,-6.5 36.2,-7 -4.3,1.8 -8.5,4.5 -12.2,7.2 -1.2,0.9 -2.4,1.8 -3.6,2.8 -0.2,-0.1 -0.4,-0.1 -0.5,0.2 0,0.1 0,0.2 0,0.3 -0.3,0.3 -0.6,0.5 -0.9,0.8 -0.1,-0.2 -0.3,-0.3 -0.6,-0.2 -7.9,0.9 -13.9,6.2 -18.3,12.6 -5.3,7.7 -9.3,16.3 -13.7,24.5 -0.3,0.5 0.5,1.2 1,0.8 8.1,-7 16.2,-14 24.2,-21 2.7,-2.3 5.5,-4.7 7.3,-7.7 1.9,-3.1 1.1,-5.6 1.4,-8.6 1.6,-1.3 3.1,-2.6 4.8,-3.8 4.2,-3 8.9,-5.1 13.3,-7.8 4.8,-0.1 9.7,0.1 14.5,0.5 6.3,0.5 12.9,1.9 19.6,3.1 -7.2,1.3 -13.9,4.3 -20.1,8.2 -0.3,-0.3 -0.6,-0.6 -1,-0.8 -4.2,-2.3 -10.2,-0.5 -14,1.6 -5.5,3 -9.3,8 -12.6,13.1 -4.1,6.5 -7.9,13.2 -11.8,19.8 -0.3,0.5 -0.6,0.9 -0.9,1.4 -0.4,0.7 0.7,1.1 1.1,0.5 5.8,-10.4 18.2,-12.7 27.8,-18.1 4.2,-2.3 8.2,-5.3 10.7,-9.5 1.2,-2 2.5,-4.7 1.5,-6.9 0,0 0,-0.1 0,-0.1 6.9,-4.2 14.2,-7.5 22.4,-8.4 -3.7,3.3 -7,7.1 -9.7,11.3 -7.6,1.4 -11.8,9.7 -14.9,16.1 -4.7,9.9 -7.6,20.6 -8.7,31.5 -0.1,0.8 1,1.2 1.3,0.4 4.2,-10.6 13.4,-17.6 20.2,-26.5 4.4,-5.8 10.1,-15.6 4.5,-22.3 -0.1,-0.1 -0.2,-0.1 -0.2,-0.2 2.6,-3.8 5.7,-7.3 9.3,-10.4 15.2,2.7 30.4,4.8 43,-5.2 0.4,-0.3 -0.8,-1.5 -1.1,-1.3 -10.2,7.3 -21.6,7.4 -33.5,5.7 -5.3,-2.7 -10.4,-5.6 -14.9,-9.7 -1.9,-1.7 -3.6,-3.6 -5.1,-5.5 0.8,-1.8 0.9,-4.2 1,-5.7 0.2,-3.4 -0.4,-6.8 -1.6,-10 -2.5,-6.5 -7.5,-11.7 -14,-14.1 -7.9,-2.9 -16.5,-1.8 -24.5,-0.5 -0.7,0.1 -1.1,1 -0.5,1.5 2.1,1.6 4.4,2.2 6.7,3.3 2.7,1.3 4.8,3.2 6.7,5.5 3.3,4 5.5,8.8 8.5,13 1.9,2.7 4.9,5.8 8.3,7.4 2,1.3 5.6,2.9 7.9,1.6 0.2,-0.1 0.3,-0.2 0.4,-0.4 4.9,5.6 11.2,10.2 17.8,13 0,0 0,0 0,0 -12,-2 -23.7,-4.3 -35.9,-4.7 -2.7,-0.1 -5.3,-0.1 -8,-0.1 -9.5,-3.7 -17.7,-9.6 -27,-13.6 -1.2,-0.5 -2.4,-1 -3.7,-1.4 0.2,-0.2 -0.2,-0.6 -0.4,-0.4 -0.1,0.1 -0.2,0.1 -0.3,0.2 -0.4,-0.1 -0.8,-0.3 -1.2,-0.4 0,-0.4 -0.1,-0.8 -0.2,-1.2 -1.4,-6.6 -7,-11.8 -13.5,-13.3 -15.2,-3.5 -26.6,10 -38.5,17.8 -1.9,0.7 -3.7,1.7 -5.2,3 -1,0.5 -0.6,1.7 0.3,1.3 z" id="path25-1678" inkscape:connector-curvature="0" style="fill: rgb(10, 20, 30);"></path></g><g id="g27"><path class="st0" d="m 262.9,527.4 c -1.1,-1.7 -2.3,-3.3 -3.6,-4.8 -1.6,-3.2 -2.3,-6.8 -2.9,-10.4 -1,-6.5 -1.5,-13.1 -1.6,-19.7 -0.1,-3 -0.1,-6.2 -0.4,-9.3 -0.2,-3.5 -0.8,-9 -3.8,-10.6 -0.3,-0.4 -0.7,-0.8 -1,-1.2 0.4,-2.6 1,-5.2 1.9,-7.9 2.6,-7.8 6.4,-15.4 8.1,-23.4 2,11.9 5.7,23.6 11.3,34.2 -0.3,0.1 -0.4,0.6 0,0.7 0.2,0 0.3,0.1 0.5,0.2 0.1,0.1 0.1,0.3 0.2,0.4 -1.1,10.1 3.4,20.4 11.1,27 4.8,4.1 10.7,6.2 16.5,8.5 7,2.7 14.1,5.4 21.1,8.1 0.8,0.3 1.4,-1 0.6,-1.4 -10.2,-6.4 -20.7,-12.8 -28.1,-22.5 -5.8,-7.5 -10.5,-17.2 -20,-20.4 0,0 -0.1,-0.1 -0.1,-0.1 -5.8,-10.9 -9.6,-22.8 -11.6,-35 2.3,4.1 5.6,7.8 8.7,11.1 1,1.1 2.1,2.2 3.2,3.2 -0.1,0.2 0,0.4 0.2,0.4 0.1,0 0.2,0 0.3,0 0.3,0.3 0.6,0.5 0.9,0.8 -0.1,0.1 -0.2,0.4 -0.2,0.6 2,7.7 8,12.9 14.8,16.5 8.3,4.3 17.4,7.1 26.1,10.4 0.6,0.2 1.1,-0.6 0.7,-1.1 -8,-7.1 -15.9,-14.2 -23.9,-21.3 -2.6,-2.3 -5.3,-4.8 -8.6,-6.3 -3.3,-1.5 -5.7,-0.4 -8.8,-0.3 -1.5,-1.4 -3,-2.8 -4.4,-4.3 -3.5,-3.8 -6.3,-8.1 -9.4,-12.1 -0.7,-4.8 -1.2,-9.6 -1.4,-14.5 -0.3,-6.3 0.2,-13 0.5,-19.9 2.2,7 6.1,13.2 10.8,18.9 -0.2,0.3 -0.5,0.7 -0.6,1.1 -1.7,4.4 0.8,10.2 3.4,13.7 3.7,5 9.1,8.2 14.7,10.8 7,3.2 14.1,6.1 21.2,9.1 0.5,0.2 1,0.5 1.5,0.7 0.7,0.3 1,-0.8 0.3,-1.1 -11,-4.4 -15,-16.4 -21.6,-25.2 -2.9,-3.8 -6.4,-7.4 -10.8,-9.3 -2.2,-0.9 -5,-1.9 -7.1,-0.6 0,0 -0.1,0 -0.1,0 -5.1,-6.3 -9.3,-13.1 -11.3,-21.1 3.8,3.3 8,6 12.5,8.2 2.4,7.4 11.1,10.4 17.9,12.6 10.5,3.4 21.4,4.8 32.4,4.5 0.8,0 1,-1.2 0.2,-1.4 -11.1,-2.7 -19.2,-11 -28.9,-16.5 -6.3,-3.6 -16.7,-8 -22.7,-1.6 -0.1,0.1 -0.1,0.2 -0.1,0.3 -4.1,-2.1 -8,-4.7 -11.5,-7.8 0.7,-15.4 0.8,-30.8 -10.8,-42 -0.3,-0.3 -1.4,1 -1.1,1.3 8.6,9.1 10.1,20.4 10,32.4 -2,5.6 -4.2,11 -7.7,16.1 -1.5,2.1 -3.1,4 -4.7,5.8 -1.9,-0.5 -4.2,-0.4 -5.8,-0.3 -3.4,0.3 -6.7,1.3 -9.7,2.9 -6.1,3.3 -10.7,9 -12.2,15.8 -1.8,8.2 0.3,16.6 2.7,24.4 0.2,0.7 1.1,0.9 1.5,0.3 1.3,-2.3 1.6,-4.6 2.4,-7.1 0.9,-2.8 2.6,-5.2 4.6,-7.3 3.6,-3.8 8,-6.6 11.8,-10.1 2.4,-2.2 5.1,-5.6 6.3,-9.2 1,-2.2 2.2,-6 0.5,-8.1 -0.1,-0.1 -0.3,-0.3 -0.4,-0.4 4.9,-5.6 8.7,-12.5 10.6,-19.3 0,0 0,0 0,0 -0.4,12.1 -1.2,24.1 0,36.2 0.3,2.6 0.6,5.3 1,7.9 -2.4,9.9 -7.2,18.8 -9.9,28.6 -0.3,1.2 -0.7,2.5 -0.9,3.8 -0.3,-0.2 -0.6,0.2 -0.4,0.5 0.1,0.1 0.1,0.2 0.2,0.2 -0.1,0.4 -0.2,0.8 -0.2,1.2 -0.4,0.1 -0.8,0.2 -1.2,0.3 -6.3,2.3 -10.8,8.5 -11.5,15.1 -1.5,15.5 13.4,25.1 22.7,35.8 0.9,1.8 2.1,3.4 3.7,4.8 0.7,0.9 1.9,0.3 1.4,-0.5 z" id="path29-1679" inkscape:connector-curvature="0" style="fill: rgb(10, 20, 30);"></path></g><g id="g31"><path class="st0" d="m 603.6,749.2 c -1.8,0.9 -3.5,2 -5.1,3.2 -3.3,1.3 -7,1.7 -10.6,1.9 -6.6,0.4 -13.2,0.3 -19.8,-0.1 -3,-0.2 -6.2,-0.5 -9.3,-0.4 -3.5,-0.2 -9,0 -10.9,2.8 -0.4,0.3 -0.9,0.6 -1.3,0.9 -2.6,-0.6 -5.1,-1.5 -7.7,-2.6 -7.6,-3.3 -14.7,-7.7 -22.6,-10.2 12.1,-1 24,-3.5 35.1,-8.2 0.1,0.3 0.6,0.5 0.7,0.1 0.1,-0.2 0.1,-0.3 0.2,-0.5 0.1,-0.1 0.3,-0.1 0.4,-0.2 10,2 20.6,-1.6 27.8,-8.7 4.5,-4.4 7.2,-10.1 9.9,-15.7 3.3,-6.8 6.6,-13.5 10,-20.3 0.4,-0.8 -0.8,-1.5 -1.4,-0.8 -7.2,9.6 -14.6,19.5 -24.9,26 -8,5.1 -18.1,8.9 -22.1,18.1 0,0 -0.1,0.1 -0.1,0.1 -11.4,4.8 -23.5,7.5 -35.9,8.5 4.3,-1.9 8.3,-4.9 11.9,-7.7 1.2,-0.9 2.3,-1.9 3.5,-2.9 0.2,0.1 0.4,0 0.5,-0.2 0,-0.1 0,-0.2 0,-0.3 0.3,-0.3 0.6,-0.6 0.9,-0.8 0.1,0.2 0.3,0.3 0.6,0.2 7.8,-1.3 13.6,-6.8 17.7,-13.3 5,-7.9 8.6,-16.7 12.7,-25.1 0.3,-0.6 -0.5,-1.2 -1,-0.8 -7.8,7.3 -15.6,14.6 -23.3,21.9 -2.6,2.4 -5.3,4.9 -7,8 -1.7,3.2 -0.9,5.6 -1.1,8.7 -1.5,1.4 -3,2.7 -4.7,4 -4.1,3.2 -8.6,5.5 -12.9,8.3 -4.8,0.3 -9.7,0.3 -14.5,0.1 -6.3,-0.3 -13,-1.3 -19.7,-2.3 7.2,-1.6 13.7,-4.9 19.8,-9 0.3,0.3 0.6,0.5 1.1,0.7 4.2,2.1 10.2,0.1 14,-2.2 5.3,-3.2 9,-8.4 12.1,-13.7 3.8,-6.7 7.3,-13.5 11,-20.3 0.3,-0.5 0.5,-1 0.8,-1.5 0.3,-0.7 -0.7,-1.1 -1.1,-0.4 -5.4,10.6 -17.7,13.5 -27.1,19.3 -4.1,2.5 -8,5.7 -10.3,9.9 -1.1,2.1 -2.3,4.8 -1.2,7 0,0 0,0.1 0,0.1 -6.7,4.5 -13.9,8.1 -22,9.3 3.6,-3.5 6.7,-7.4 9.2,-11.7 7.6,-1.7 11.4,-10.2 14.2,-16.7 4.3,-10.1 6.7,-20.9 7.4,-31.9 0,-0.8 -1.1,-1.1 -1.3,-0.3 -3.7,10.8 -12.7,18.1 -19,27.3 -4.2,6 -9.4,16 -3.6,22.5 0.1,0.1 0.2,0.1 0.2,0.1 -2.5,3.9 -5.4,7.5 -8.8,10.8 -15.3,-2.1 -30.6,-3.5 -42.8,6.9 -0.3,0.3 0.8,1.5 1.2,1.2 9.9,-7.8 21.2,-8.3 33.2,-7.1 5.4,2.5 10.6,5.2 15.3,9.1 2,1.6 3.7,3.4 5.3,5.3 -0.7,1.8 -0.8,4.2 -0.8,5.7 0,3.4 0.7,6.8 2,9.9 2.7,6.4 8,11.4 14.6,13.5 8,2.5 16.5,1.2 24.5,-0.5 0.7,-0.1 1,-1.1 0.4,-1.5 -2.1,-1.5 -4.5,-2 -6.8,-3 -2.7,-1.2 -4.9,-3 -6.9,-5.2 -3.4,-3.9 -5.8,-8.6 -9,-12.6 -2,-2.6 -5.1,-5.6 -8.6,-7.1 -2.1,-1.2 -5.8,-2.7 -8,-1.2 -0.2,0.1 -0.3,0.3 -0.4,0.4 -5.1,-5.4 -11.6,-9.8 -18.3,-12.3 0,0 0,0 0,0 12,1.5 23.9,3.3 36,3.2 2.7,0 5.3,-0.1 8,-0.3 9.6,3.3 18.1,8.9 27.6,12.5 1.2,0.5 2.5,0.9 3.7,1.3 -0.2,0.2 0.2,0.6 0.4,0.4 0.1,-0.1 0.2,-0.1 0.2,-0.2 0.4,0.1 0.8,0.2 1.2,0.3 0,0.4 0.1,0.8 0.2,1.2 1.7,6.5 7.5,11.5 14,12.8 15.3,2.9 26.2,-11.1 37.7,-19.4 1.9,-0.8 3.6,-1.8 5.1,-3.2 0.9,-0.3 0.4,-1.5 -0.4,-1.1 z" id="path33-1680" inkscape:connector-curvature="0" style="fill: rgb(10, 20, 30);"></path></g><g id="g35"><path class="st0" d="m 290.7,315.1 c 0.9,-2.6 1.5,-5.2 2,-7.9 2,-4.4 5.3,-8.2 8.7,-11.9 6.1,-6.6 12.7,-12.7 19.7,-18.5 3.2,-2.6 6.6,-5.3 9.6,-8.4 3.6,-3.1 8.9,-8.5 8.1,-13 0.2,-0.7 0.3,-1.4 0.4,-2.1 3.1,-1.8 6.4,-3.3 10,-4.6 10.5,-3.9 21.8,-6.2 31.9,-11.2 -11,12.3 -20.3,26 -26.9,41.1 -0.4,-0.2 -1,0.1 -0.8,0.6 0.1,0.2 0.1,0.4 0.2,0.6 -0.1,0.2 -0.2,0.4 -0.2,0.6 -11.7,7.4 -18.9,20.9 -19.3,34.7 -0.3,8.6 2.4,16.7 5,24.8 3.1,9.8 6.2,19.6 9.2,29.4 0.4,1.2 2.2,0.7 2.1,-0.5 -1.9,-16.3 -3.9,-32.9 0.1,-49 3.1,-12.6 9.5,-25.8 4.9,-38.6 0,-0.1 0,-0.1 0,-0.2 6.7,-15.4 16.2,-29.5 27.4,-42 -2.4,5.9 -3.6,12.6 -4.5,18.7 -0.3,2 -0.5,4.1 -0.7,6.2 -0.2,0.1 -0.4,0.3 -0.3,0.6 0.1,0.1 0.1,0.2 0.2,0.3 0,0.6 -0.1,1.1 -0.1,1.7 -0.3,0 -0.6,0.1 -0.8,0.4 -6.5,8.6 -7,19.5 -5,29.8 2.5,12.4 7.2,24.5 11,36.6 0.3,0.8 1.6,0.7 1.7,-0.2 0.8,-14.5 1.6,-29 2.4,-43.5 0.2,-4.8 0.6,-9.8 -0.6,-14.5 -1.3,-4.8 -4.4,-6.4 -7.1,-9.6 0.2,-2.8 0.4,-5.5 0.8,-8.3 1,-7 3.4,-13.5 5,-20.4 4.5,-4.8 9.2,-9.4 14.2,-13.8 6.4,-5.6 14,-10.8 21.6,-16.2 -5.6,8.3 -8.9,17.7 -11,27.5 -0.5,0 -1.1,0.1 -1.7,0.3 -6.1,1.9 -10.2,9.5 -11.8,15.3 -2.3,8.2 -1,16.7 0.9,24.8 2.5,10.2 5.5,20.2 8.2,30.3 0.2,0.7 0.4,1.5 0.6,2.2 0.3,1 1.7,0.4 1.5,-0.6 -4.6,-15.5 4.8,-29.9 8.6,-44.4 1.6,-6.3 2.6,-13.1 0.8,-19.4 -0.9,-3.1 -2.2,-6.9 -5.4,-8 0,0 -0.1,0 -0.1,-0.1 2.4,-10.7 6.1,-21 12.9,-29.9 -0.3,6.8 0.3,13.6 1.9,20.2 -5.9,8.8 -1.7,20.7 1.7,29.8 5.3,14 13,26.9 22.6,38.4 0.7,0.8 2.1,0.1 1.7,-0.9 -6.5,-14.1 -4.5,-29.8 -6.8,-44.8 -1.5,-9.8 -5.7,-24.6 -17.6,-25.5 -0.2,0 -0.3,0 -0.4,0.1 -1.2,-6.2 -1.7,-12.4 -1.4,-18.9 17,-12.3 33.5,-25.2 35.7,-47 0.1,-0.6 -2.3,-0.7 -2.3,-0.1 -2.5,16.9 -13.2,28.1 -26.1,38.1 -7.7,2.6 -15.4,4.8 -23.6,5.4 -3.5,0.2 -6.9,0.1 -10.2,-0.2 -1,-2.5 -3.2,-4.9 -4.6,-6.4 -3.2,-3.4 -7.1,-6 -11.3,-7.9 -8.7,-3.7 -18.6,-3.8 -27.1,0.4 -10.3,5 -17.4,14.4 -23.7,23.5 -0.5,0.8 0,2 1,1.9 3.5,-0.5 6.3,-2.2 9.6,-3.4 3.8,-1.4 7.7,-1.7 11.7,-1.3 7,0.6 13.8,3 20.8,4 4.4,0.6 10.3,0.7 15.1,-1 3.2,-0.8 8.2,-2.7 9,-6.3 0.1,-0.3 0,-0.5 0.1,-0.8 10.1,0.5 20.6,-1.3 29.6,-5.1 0,0 0,0 0,0 -13.3,9.8 -26.6,19.1 -38.6,30.6 -2.6,2.5 -5.1,5.1 -7.6,7.8 -12.6,5.8 -26.2,8.2 -38.9,13.6 -1.6,0.7 -3.2,1.4 -4.9,2.3 0,-0.4 -0.8,-0.5 -0.8,0 0,0.1 0,0.3 0,0.4 -0.5,0.3 -1,0.5 -1.5,0.8 -0.4,-0.4 -0.8,-0.7 -1.3,-1 -7.8,-4.8 -18.2,-4.4 -25.8,0.6 -17.8,11.6 -15.4,35.5 -19,54.6 -1.1,2.5 -1.8,5.2 -2,8 -0.4,0.8 1.2,1.5 1.6,0.4 z" id="path37-1681" inkscape:connector-curvature="0" style="fill: rgb(10, 20, 30);"></path></g><g id="g39"><path class="st0" d="m 328.6,747.4 c -2.1,-1.8 -4.3,-3.4 -6.5,-4.9 -3.3,-3.5 -5.6,-8 -7.7,-12.5 -3.8,-8.2 -7,-16.6 -9.7,-25.2 -1.2,-3.9 -2.5,-8.1 -4.1,-12 -1.5,-4.5 -4.5,-11.4 -9,-12.4 -0.6,-0.4 -1.2,-0.8 -1.8,-1.2 -0.5,-3.6 -0.6,-7.2 -0.5,-11 0.4,-11.2 2.4,-22.5 1.6,-33.7 7.2,14.8 16.5,28.6 27.9,40.4 -0.4,0.3 -0.3,1 0.3,1 0.2,0 0.5,0 0.7,0 0.1,0.1 0.3,0.3 0.4,0.4 2.5,13.6 12.3,25.4 24.9,31 7.8,3.5 16.4,4.1 24.9,4.7 10.2,0.8 20.5,1.6 30.7,2.5 1.2,0.1 1.4,-1.8 0.3,-2.1 -15.8,-4.4 -31.9,-8.8 -45.4,-18.6 -10.5,-7.6 -20.3,-18.5 -33.9,-19 -0.1,0 -0.1,-0.1 -0.2,-0.1 -11.7,-12 -21.2,-26.1 -28.6,-41.2 4.6,4.4 10.3,8.1 15.7,11.2 1.8,1 3.6,2 5.4,3 0,0.3 0.1,0.5 0.5,0.5 0.1,0 0.2,-0.1 0.3,-0.1 0.5,0.2 1,0.5 1.5,0.7 -0.1,0.2 -0.2,0.6 0,0.9 5.5,9.3 15.4,13.8 25.7,15.8 12.4,2.4 25.5,2.6 38.1,3.5 0.8,0.1 1.2,-1.3 0.5,-1.6 -13.1,-6.2 -26.3,-12.4 -39.4,-18.6 -4.4,-2 -8.8,-4.3 -13.7,-4.9 -4.9,-0.6 -7.5,1.7 -11.6,3 -2.5,-1.2 -5,-2.5 -7.4,-3.9 -6.1,-3.6 -11.3,-8.2 -17,-12.2 -2.8,-6 -5.3,-12.1 -7.4,-18.3 -2.8,-8.1 -4.8,-17.1 -6.9,-26.2 5.6,8.3 13,14.9 21.3,20.5 -0.2,0.5 -0.4,1 -0.4,1.7 -0.5,6.4 5,13 9.7,16.6 6.7,5.2 15.1,7.2 23.3,8.5 10.4,1.5 20.8,2.5 31.2,3.8 0.7,0.1 1.5,0.2 2.3,0.3 1,0.1 1,-1.5 0,-1.6 -16.1,-1.5 -25.9,-15.6 -37.9,-24.7 -5.2,-3.9 -11.1,-7.3 -17.7,-8 -3.2,-0.4 -7.2,-0.6 -9.5,2 0,0 -0.1,0.1 -0.1,0.1 -9.1,-6.2 -17.2,-13.5 -22.8,-23.2 6.2,2.8 12.7,4.8 19.4,5.9 5.9,8.7 18.6,9.4 28.3,9.6 15,0.4 29.8,-1.9 44.1,-6.5 1,-0.3 0.9,-1.9 -0.2,-1.9 -15.5,0.7 -29.3,-7 -44,-10.5 -9.7,-2.3 -24.9,-4 -30.3,6.7 -0.1,0.1 -0.1,0.3 -0.1,0.4 -6.2,-1.2 -12.2,-3.1 -18,-5.8 -5,-20.4 -10.8,-40.5 -30.1,-50.7 -0.5,-0.3 -1.5,1.8 -1,2.1 14.8,8.6 21.1,22.8 25.5,38.5 -0.5,8.1 -1.3,16.1 -3.9,23.9 -1.1,3.3 -2.5,6.4 -4,9.4 -2.7,0 -5.7,1.1 -7.6,1.9 -4.3,1.7 -8.3,4.3 -11.5,7.5 -6.7,6.6 -10.5,15.8 -9.9,25.3 0.8,11.4 6.8,21.5 12.9,30.8 0.5,0.8 1.9,0.8 2.1,-0.2 0.8,-3.5 0.3,-6.7 0.4,-10.2 0.1,-4 1.4,-7.8 3.2,-11.3 3.2,-6.3 7.9,-11.7 11.5,-17.7 2.3,-3.8 4.5,-9.3 4.7,-14.4 0.5,-3.3 0.6,-8.7 -2.4,-10.7 -0.2,-0.1 -0.5,-0.2 -0.7,-0.3 4.2,-9.2 6.5,-19.6 6.4,-29.3 0,0 0,0 0,0.1 4.1,16 7.7,31.9 13.9,47.3 1.4,3.4 2.8,6.7 4.3,10 0.6,13.8 -2.2,27.4 -2,41.2 0,1.7 0.1,3.5 0.3,5.4 -0.4,-0.1 -0.7,0.6 -0.3,0.7 0.1,0.1 0.3,0.1 0.4,0.2 0.1,0.6 0.1,1.1 0.2,1.7 -0.5,0.2 -0.9,0.5 -1.4,0.9 -7.4,5.4 -10.9,15.2 -9.2,24.2 4,20.9 27.1,27.6 43.4,38.1 1.9,2 4.1,3.7 6.6,4.9 0.7,-0.1 1.9,-1.3 1,-2.1 z" id="path41-1682" inkscape:connector-curvature="0" style="fill: rgb(10, 20, 30);"></path></g><g id="g43"><path class="st1" d="m 715.2,751.3 -344.9,0 -0.8,-1.4 L 197.8,452.6 370.3,154 l 344.9,0 0.8,1.4 171.6,297.3 -172.4,298.6 z m -341.6,-5.6 338.4,0 169.2,-293 -169.2,-293 -338.4,0 -169.2,293 169.2,293 z" id="path45-1683" inkscape:connector-curvature="0" style="fill:#b9921d"></path></g><g id="g47"><path class="st1" d="m 542.7,797.5 -1.4,-0.8 -297.3,-171.6 0,-344.9 1.4,-0.8 297.3,-171.6 298.7,172.4 0,344.9 -1.4,0.8 -297.3,171.6 z m -293,-175.7 293,169.2 293,-169.2 0,-338.3 -293,-169.2 -293,169.2 0,338.3 z" id="path49-1684" inkscape:connector-curvature="0" style="fill:#b9921d"></path></g></g></g></switch></svg></g>
      </g>
  </svg>